{"title":"F1 Forum Malaysia","uid":6309346,"size":1014195913,"categoryP":"video","categoryS":"tv_shows","magnet":"?xt=urn:btih:53e7f19b6cc43ed14477e1e54e8db21d2cb86360&amp;dn=F1+Forum+Malaysia&amp;tr=udp%3A%2F%2Ftracker.openbittorrent.com%3A80&amp;tr=udp%3A%2F%2Fopen.demonii.com%3A1337&amp;tr=udp%3A%2F%2Ftracker.coppersurfer.tk%3A6969&amp;tr=udp%3A%2F%2Fexodus.desync.com%3A6969","seeders":0,"leechers":0,"uploader":"jorrell0733","files":2,"time":1302475698,"description":"Formula One 2011 Season\n\nRace 2: Malaysian GP, Kuala Lumpur. Sepang Circuit\n\nRecord Source: BBC Red Button Feed\nOriginal Format: DVR-MS File\nDate: Sunday 10th April 2011\nTime: 11:20 to 12:30\n\nMalaysian Grand Prix Forum Live\n\nJake Humphrey, David Coulthard &amp; Eddie Jordan bring you the F1\nForum from the BBC's interactive service, with all the latest news,tweets\n&amp; emails from todays Malaysian Grand Prix including race anaylsis from Martin Brundle.\n\n\nRecoded Method:\n\nComplete name : F1 Forum Malaysia.mp4\nFormat : MPEG-4\nFormat profile : Base Media\nCodec ID : isom\nFile size : 967 MiB\nDuration : 1h 9mn\nOverall bit rate : 1 933 Kbps\nEncoded date : UTC 2011-04-10 20:12:45\nTagged date : UTC 2011-04-10 20:12:45\nWriting application : Lavf51.12.1\n\nVideo\nID : 1\nFormat : MPEG-4 Visual\nFormat profile : Simple@L1\nFormat settings, BVOP : No\nFormat settings, QPel : No\nFormat settings, GMC : No warppoints\nFormat settings, Matrix : Default (H.263)\nCodec ID : 20\nDuration : 1h 9mn\nBit rate mode : Variable\nBit rate : 1 800 Kbps\nWidth : 1 024 pixels\nHeight : 576 pixels\nDisplay aspect ratio : 16:9\nFrame rate mode : Constant\nFrame rate : 25.000 fps\nColor space : YUV\nChroma subsampling : 4:2:0\nBit depth : 8 bits\nScan type : Progressive\nCompression mode : Lossy\nBits/(Pixel*Frame) : 0.122\nStream size : 901 MiB (93%)\nWriting library : Lavc51.40.4\nEncoded date : UTC 2011-04-10 20:12:45\nTagged date : UTC 2011-04-10 20:12:45\n\nAudio\nID : 2\nFormat : AAC\nFormat/Info : Advanced Audio Codec\nFormat profile : LC\nCodec ID : 40\nDuration : 1h 9mn\nBit rate mode : Variable\nBit rate : 128 Kbps\nChannel(s) : 2 channels\nChannel positions : Front: L R\nSampling rate : 48.0 KHz\nCompression mode : Lossy\nStream size : 64.0 MiB (7%)\nEncoded date : UTC 2011-04-10 20:12:45\nTagged date : UTC 2011-04-10 20:12:45\n\n\nEnjoy\n\nThe BlackKnight","torrent":{"xt":"urn:btih:53e7f19b6cc43ed14477e1e54e8db21d2cb86360","amp;dn":"F1+Forum+Malaysia","amp;tr":["udp%3A%2F%2Ftracker.openbittorrent.com%3A80","udp%3A%2F%2Fopen.demonii.com%3A1337","udp%3A%2F%2Ftracker.coppersurfer.tk%3A6969","udp%3A%2F%2Fexodus.desync.com%3A6969"],"infoHash":"53e7f19b6cc43ed14477e1e54e8db21d2cb86360","infoHashBuffer":{"type":"Buffer","data":[83,231,241,155,108,196,62,209,68,119,225,229,78,141,178,29,44,184,99,96]},"announce":[],"urlList":[]}}